<svg  viewBox="0 0 91 91" fill="none" xmlns="http://www.w3.org/2000/svg">
<g clip-path="url(#clip0_302_29)">
<path d="M45.1196 0.0955811C57.0544 0.0955811 68.5003 4.83664 76.9394 13.2758C85.3786 21.7149 90.1196 33.1608 90.1196 45.0956C90.1196 57.0303 85.3786 68.4762 76.9394 76.9154C68.5003 85.3545 57.0544 90.0956 45.1196 90.0956C33.1849 90.0956 21.739 85.3545 13.2998 76.9154C4.86069 68.4762 0.119629 57.0303 0.119629 45.0956C0.119629 33.1608 4.86069 21.7149 13.2998 13.2758C21.739 4.83664 33.1849 0.0955811 45.1196 0.0955811ZM8.55713 45.0956C8.55713 54.7926 12.4092 64.0924 19.266 70.9492C26.1228 77.806 35.4226 81.6581 45.1196 81.6581C54.8166 81.6581 64.1164 77.806 70.9732 70.9492C77.83 64.0924 81.6821 54.7926 81.6821 45.0956C81.6821 35.3986 77.83 26.0988 70.9732 19.242C64.1164 12.3852 54.8166 8.53308 45.1196 8.53308C35.4226 8.53308 26.1228 12.3852 19.266 19.242C12.4092 26.0988 8.55713 35.3986 8.55713 45.0956ZM36.0015 29.4975L59.9865 43.8918C60.1938 44.017 60.3652 44.1936 60.4842 44.4045C60.6032 44.6154 60.6658 44.8534 60.6658 45.0956C60.6658 45.3377 60.6032 45.5758 60.4842 45.7867C60.3652 45.9976 60.1938 46.1741 59.9865 46.2993L36.0015 60.6937C35.7882 60.8222 35.5446 60.8917 35.2957 60.8952C35.0467 60.8987 34.8013 60.8361 34.5845 60.7137C34.3676 60.5912 34.1872 60.4134 34.0616 60.1984C33.936 59.9834 33.8698 59.7389 33.8696 59.49V30.7068C33.8688 30.4574 33.9343 30.2122 34.0595 29.9964C34.1847 29.7806 34.365 29.602 34.582 29.4789C34.799 29.3558 35.0448 29.2926 35.2943 29.2959C35.5437 29.2992 35.7878 29.3687 36.0015 29.4975Z" fill="#F8F8F8"/>
</g>
<defs>
<clipPath id="clip0_302_29">
<rect width="90" height="90" fill="white" transform="translate(0.119629 0.0955811)"/>
</clipPath>
</defs>
</svg>
