<svg  viewBox="0 0 43 44" fill="none" xmlns="http://www.w3.org/2000/svg">
<path d="M23.7756 4.29386C25.0526 4.28884 26.3296 4.30198 27.6063 4.33328L27.9458 4.34582C28.3378 4.36015 28.7246 4.37807 29.1918 4.39957C31.0538 4.48915 32.3243 4.79015 33.4391 5.23269C34.5941 5.68778 35.5671 6.30411 36.5401 7.30028C37.4297 8.19541 38.1183 9.27818 38.5578 10.4733C38.9901 11.6146 39.2841 12.9172 39.3716 14.8235C39.3926 15.3001 39.4101 15.6978 39.4241 16.0992L39.4346 16.4467C39.4657 17.7532 39.4791 19.0601 39.4748 20.3669L39.4766 21.7035V24.0506C39.4809 25.358 39.4675 26.6655 39.4363 27.9725L39.4258 28.3201C39.4118 28.7214 39.3943 29.1174 39.3733 29.5958C39.2858 31.5021 38.9883 32.8029 38.5578 33.9442C38.1197 35.1406 37.431 36.2242 36.5401 37.119C35.665 38.0297 34.6069 38.7346 33.4391 39.1848C32.3243 39.6273 31.0538 39.9283 29.1918 40.0179C28.7246 40.0394 28.3378 40.0573 27.9458 40.0717L27.6063 40.0824C26.3296 40.1143 25.0526 40.128 23.7756 40.1236L22.4701 40.1254H20.1793C18.9023 40.1298 17.6252 40.1161 16.3486 40.0842L16.0091 40.0735C15.5936 40.058 15.1783 40.0401 14.7631 40.0197C12.9011 39.9301 11.6306 39.6255 10.5141 39.1848C9.34626 38.7357 8.28848 38.0306 7.41481 37.119C6.52414 36.2237 5.83496 35.1402 5.39532 33.9442C4.96307 32.8029 4.66907 31.5021 4.58157 29.5958C4.56208 29.1706 4.54458 28.7454 4.52907 28.3201L4.52032 27.9725C4.48805 26.6655 4.47347 25.358 4.47657 24.0506V20.3669C4.47168 19.0601 4.48452 17.7532 4.51507 16.4467L4.52732 16.0992C4.54132 15.6978 4.55882 15.3001 4.57982 14.8235C4.66732 12.9154 4.96132 11.6164 5.39356 10.4733C5.83347 9.2776 6.524 8.19512 7.41657 7.30207C8.28963 6.38967 9.34675 5.68343 10.5141 5.23269C11.6306 4.79015 12.8993 4.48915 14.7631 4.39957L16.0091 4.34582L16.3486 4.33686C17.6246 4.30385 18.9011 4.28891 20.1776 4.29207L23.7756 4.29386ZM21.9766 13.2522C20.8172 13.2354 19.6661 13.4547 18.5903 13.8973C17.5144 14.3399 16.5352 14.9971 15.7095 15.8305C14.8839 16.6639 14.2283 17.6571 13.7808 18.7522C13.3333 19.8473 13.1028 21.0225 13.1028 22.2096C13.1028 23.3967 13.3333 24.572 13.7808 25.6671C14.2283 26.7622 14.8839 27.7553 15.7095 28.5888C16.5352 29.4222 17.5144 30.0793 18.5903 30.522C19.6661 30.9646 20.8172 31.1839 21.9766 31.1671C24.2972 31.1671 26.5228 30.2233 28.1637 28.5432C29.8047 26.8632 30.7266 24.5846 30.7266 22.2087C30.7266 19.8328 29.8047 17.5543 28.1637 15.8742C26.5228 14.1942 24.2972 13.2522 21.9766 13.2522ZM21.9766 16.8355C22.674 16.8224 23.3669 16.9516 24.015 17.2157C24.663 17.4798 25.2532 17.8735 25.7509 18.3738C26.2487 18.874 26.6441 19.4708 26.9141 20.1292C27.1841 20.7877 27.3232 21.4946 27.3233 22.2087C27.3234 22.9228 27.1845 23.6298 26.9148 24.2884C26.645 24.9469 26.2498 25.5438 25.7522 26.0442C25.2546 26.5446 24.6645 26.9385 24.0166 27.2028C23.3686 27.4672 22.6757 27.5967 21.9783 27.5837C20.5859 27.5837 19.2506 27.0174 18.266 26.0094C17.2814 25.0014 16.7283 23.6343 16.7283 22.2087C16.7283 20.7832 17.2814 19.416 18.266 18.408C19.2506 17.4 20.5859 16.8337 21.9783 16.8337L21.9766 16.8355ZM31.1641 10.5647C30.5995 10.5878 30.0656 10.8337 29.6741 11.2509C29.2827 11.668 29.064 12.224 29.064 12.8025C29.064 13.381 29.2827 13.937 29.6741 14.3541C30.0656 14.7713 30.5995 15.0171 31.1641 15.0403C31.7442 15.0403 32.3006 14.8043 32.7109 14.3843C33.1211 13.9643 33.3516 13.3947 33.3516 12.8007C33.3516 12.2067 33.1211 11.6371 32.7109 11.2171C32.3006 10.7971 31.7442 10.5611 31.1641 10.5611V10.5647Z" fill="#F8F8F8"/>
</svg>
